# xmcd CD database file
#
# Track frame offsets:
#	150
#	24302
#	42036
#	67753
#	87748
#	102967
#	121347
#	140805
#	158627
#	179906
#	199580
#	218829
#	242564
#	261273
#	281912
#	296498
#	315477
#
# Disc length: 4634 seconds
#
# Revision: 7
# Processed by: cddbd v1.5.2PL0 Copyright (c) Steve Scherf et al.
# Submitted via: CDex 1.51
#
DISCID=fc121811
DTITLE=Zucchero Sugar Fornaciari - All The Best [CD2]
DYEAR=2007
DGENRE=Rock
TTITLE0=Overdose (D'amore)
TTITLE1=Il Mare Impetuoso Al Tramonto Salì Sulla Luna E Dietro Una Tendina Di Stelle...
TTITLE2=Dune Mosse
TTITLE3=Senza Una Donna
TTITLE4=Donne
TTITLE5=Ridammi Il Sole
TTITLE6=Rispetto
TTITLE7=Pane E Sale
TTITLE8=Ahum
TTITLE9=Non Ti Sopporto Più
TTITLE10=Hey Man
TTITLE11=It's All Right (La Promessa)
TTITLE12=Va, Pensiero
TTITLE13=Pippo
TTITLE14=X Colpa Di Chi?
TTITLE15=Miserere
TTITLE16=Madre Dolcissima
EXTD=YEAR: 2007
EXTT0=
EXTT1=
EXTT2=
EXTT3=
EXTT4=
EXTT5=
EXTT6=
EXTT7=
EXTT8=
EXTT9=
EXTT10=
EXTT11=
EXTT12=
EXTT13=
EXTT14=
EXTT15=
EXTT16=
PLAYORDER=
